<svg xmlns="http://www.w3.org/2000/svg" viewBox="0 0 99 51" fill="none"><g clip-path="url(#clip0_117_12)"><path d="M11.1259 17.3266H-0.0580642V12.6706H27.7339V17.3266H16.5979V47.4706H11.1259V17.3266ZM45.4002 35.1826C43.3842 35.3746 41.6082 35.5986 40.0722 35.8546C38.5682 36.1106 37.3042 36.4466 36.2802 36.8626C35.2562 37.2466 34.4722 37.7266 33.9282 38.3026C33.4162 38.8786 33.1602 39.5826 33.1602 40.4146C33.1602 41.5986 33.5922 42.5426 34.4562 43.2466C35.3202 43.9186 36.5202 44.2546 38.0562 44.2546C39.0802 44.2546 40.0402 44.1266 40.9362 43.8706C41.8322 43.5826 42.6002 43.1506 43.2402 42.5746C43.9122 41.9986 44.4402 41.2626 44.8242 40.3666C45.2082 39.4386 45.4002 38.3346 45.4002 37.0546V35.1826ZM36.9522 48.0946C35.6402 48.0946 34.4242 47.9186 33.3042 47.5666C32.1842 47.2146 31.2082 46.7186 30.3762 46.0786C29.5442 45.4066 28.8882 44.6066 28.4082 43.6786C27.9602 42.7506 27.7362 41.6946 27.7362 40.5106C27.7362 38.9426 28.1682 37.6466 29.0322 36.6226C29.9282 35.5666 31.1442 34.7026 32.6802 34.0306C34.2482 33.3586 36.0882 32.8306 38.2002 32.4466C40.3442 32.0626 42.6642 31.7426 45.1602 31.4866V30.9586C45.1602 29.8066 45.0162 28.8466 44.7282 28.0786C44.4402 27.3106 44.0402 26.6866 43.5282 26.2066C43.0482 25.7266 42.4722 25.3906 41.8002 25.1986C41.1282 24.9746 40.3922 24.8626 39.5922 24.8626C37.8642 24.8626 36.5202 25.2946 35.5602 26.1586C34.6002 26.9906 34.0722 28.2066 33.9762 29.8066H28.9362C29.0322 28.4306 29.3682 27.1986 29.9442 26.1106C30.5522 25.0226 31.3362 24.1106 32.2962 23.3746C33.2562 22.6066 34.3762 22.0306 35.6562 21.6466C36.9362 21.2306 38.3122 21.0226 39.7842 21.0226C43.1122 21.0226 45.6882 21.8866 47.5122 23.6146C49.3362 25.3106 50.2322 28.0946 50.2002 31.9666C50.2002 32.1266 50.1842 32.4946 50.1522 33.0706C50.1522 33.6146 50.1522 34.2226 50.1522 34.8946C50.1522 35.5666 50.1362 36.2066 50.1042 36.8146C50.1042 37.4226 50.1042 37.8706 50.1042 38.1586C50.1042 42.0626 50.3442 45.1666 50.8242 47.4706H46.0242C45.9282 46.9586 45.8482 46.4786 45.7842 46.0306C45.7202 45.5506 45.6562 44.8946 45.5922 44.0626C44.8242 45.3746 43.7202 46.3826 42.2802 47.0866C40.8402 47.7586 39.0642 48.0946 36.9522 48.0946ZM63.5179 12.6706V32.6866L73.7899 21.6466H79.8859L69.8539 32.3026L80.6059 47.4706H74.6539L66.4459 35.9026L63.5179 39.0226V47.4706H58.5259V12.6706H63.5179ZM86.5846 15.0226H91.5766V21.6466H96.6646V25.4386H91.5766V40.1746C91.5766 41.4866 91.7526 42.3666 92.1046 42.8146C92.4566 43.2626 93.2566 43.4866 94.5046 43.4866H96.6166V47.4706H92.9686C91.6566 47.4706 90.5846 47.3746 89.7526 47.1826C88.9206 46.9906 88.2646 46.6546 87.7846 46.1746C87.3366 45.6626 87.0166 44.9906 86.8246 44.1586C86.6646 43.2946 86.5846 42.1906 86.5846 40.8466V25.4386H82.6486V21.6466H86.5846V15.0226Z" fill="black"/></g><g clip-path="url(#clip1_117_12)"><path d="M12.9267 17.0419V47.1859H18.3987V17.0419H29.5347V12.3859H1.74272V17.0419H12.9267ZM29.537 40.2259C29.537 44.9299 33.521 47.8099 38.753 47.8099C42.929 47.8099 45.857 46.3699 47.393 43.7779C47.489 45.4099 47.633 46.1779 47.825 47.1859H52.625C52.145 44.8819 51.905 41.7139 51.905 37.8739C51.905 36.7699 52.001 32.3059 52.001 31.6819C52.097 23.9539 48.257 20.7379 41.585 20.7379C35.681 20.7379 31.169 24.0499 30.737 29.5219H35.777C35.969 26.3539 37.937 24.5779 41.393 24.5779C44.561 24.5779 46.961 26.1139 46.961 30.6739V31.2019C36.929 32.2579 29.537 33.9379 29.537 40.2259ZM47.201 34.8979V36.7699C47.201 41.9059 43.985 43.9699 39.857 43.9699C36.833 43.9699 34.961 42.4819 34.961 40.1299C34.961 36.7699 39.185 35.6659 47.201 34.8979ZM65.3187 12.3859H60.3267V47.1859H65.3187V38.7379L68.2467 35.6179L76.4547 47.1859H82.4067L71.6547 32.0179L81.6867 21.3619H75.5907L65.3187 32.4019V12.3859ZM88.3853 14.7379V21.3619H84.4493V25.1539H88.3853V40.5619C88.3853 45.8899 89.5373 47.1859 94.7693 47.1859H98.4173V43.2019H96.3053C93.8093 43.2019 93.3773 42.5299 93.3773 39.8899V25.1539H98.4654V21.3619H93.3773V14.7379H88.3853Z" fill="black"/></g><defs><clipPath id="clip0_117_12"><rect width="97" height="33" fill="white" transform="translate(0.5 0.470581)"/></clipPath><clipPath id="clip1_117_12"><rect width="97" height="17" fill="white" transform="translate(2 33.4706)"/></clipPath></defs></svg>